<?xml version="1.0" encoding="UTF-8" standalone="no"?>
<svg
   width="67"
   height="66"
   viewBox="0 0 67 66"
   fill="none"
   version="1.1"
   id="svg12"
   sodipodi:docname="moon.svg"
   inkscape:version="1.1.2 (0a00cf5339, 2022-02-04)"
   xmlns:inkscape="http://www.inkscape.org/namespaces/inkscape"
   xmlns:sodipodi="http://sodipodi.sourceforge.net/DTD/sodipodi-0.dtd"
   xmlns="http://www.w3.org/2000/svg"
   xmlns:svg="http://www.w3.org/2000/svg">
  <defs
     id="defs16" />
  <sodipodi:namedview
     id="namedview14"
     pagecolor="#aaaaaa"
     bordercolor="#666666"
     borderopacity="1.0"
     inkscape:pageshadow="2"
     inkscape:pageopacity="0"
     inkscape:pagecheckerboard="0"
     showgrid="false"
     inkscape:zoom="6.2575758"
     inkscape:cx="17.179177"
     inkscape:cy="38.193705"
     inkscape:window-width="1920"
     inkscape:window-height="1006"
     inkscape:window-x="0"
     inkscape:window-y="0"
     inkscape:window-maximized="1"
     inkscape:current-layer="g10" />
  <g
     opacity="0.95"
     id="g10">
    <path
       d="m 28.825181,6.6742893 c -5.401483,8.2489487 -6.067404,19.1683427 -0.80073,28.2906057 5.266675,9.122177 15.05614,14.005198 24.900572,13.45186 -2.239341,3.419876 -5.292661,6.380617 -9.074477,8.564137 C 30.946383,64.431086 14.445989,60.009764 6.9958207,47.105685 -0.45437326,34.201607 3.966906,17.701128 16.871002,10.250977 20.652988,8.0674661 24.743829,6.9036773 28.825181,6.6742893 Z"
       fill="#ffffff"
       id="path2"
       style="stroke-width:0.854841" />
    <path
       d="M38.784 7.4547L41.495 14.781L48.8213 17.492L41.495 20.203L38.784 27.5293L36.073 20.203L28.7467 17.492L36.073 14.781L38.784 7.4547Z"
       fill="#F7F7F7"
       id="path4" />
    <path
       d="M54.8387 19.1273L58.0118 27.7025L66.587 30.8756L58.0118 34.0486L54.8387 42.6238L51.6657 34.0486L43.0905 30.8756L51.6657 27.7025L54.8387 19.1273Z"
       fill="#C8C8C8"
       id="path6" />
    <path
       d="M54.8382 0L56.8516 5.44124L62.2929 7.45468L56.8516 9.46813L54.8382 14.9094L52.8248 9.46813L47.3835 7.45468L52.8248 5.44124L54.8382 0Z"
       fill="white"
       id="path8" />
  </g>
</svg>
