<svg width="268" height="268" viewBox="0 0 268 268" fill="none" xmlns="http://www.w3.org/2000/svg">
<circle cx="106.334" cy="161.044" r="106.334" fill="#DFF1FF"/>
<g filter="url(#filter0_b_220_1081)">
<path d="M161.035 5.8605L81.9037 58.6146C75.6205 62.8034 75.6205 72.0363 81.9037 76.2252L161.035 128.979C164.549 131.322 169.121 131.351 172.665 129.052L253.982 76.2979C260.413 72.126 260.413 62.7137 253.982 58.5418L172.665 5.78774C169.121 3.48881 164.549 3.51741 161.035 5.8605Z" fill="#B9E6FF" fill-opacity="0.63"/>
<path d="M161.035 5.8605L81.9037 58.6146C75.6205 62.8034 75.6205 72.0363 81.9037 76.2252L161.035 128.979C164.549 131.322 169.121 131.351 172.665 129.052L253.982 76.2979C260.413 72.126 260.413 62.7137 253.982 58.5418L172.665 5.78774C169.121 3.48881 164.549 3.51741 161.035 5.8605Z" stroke="#7BC7FF" stroke-width="8.14048"/>
</g>
<mask id="path-3-inside-1_220_1081" fill="white">
<path fill-rule="evenodd" clip-rule="evenodd" d="M98.0225 105.85L151.471 141.482C160.663 147.611 172.619 147.685 181.887 141.673L235.126 107.135V173.942C235.126 181.585 228.93 187.781 221.287 187.781H111.861C104.218 187.781 98.0225 181.585 98.0225 173.942V105.85Z"/>
</mask>
<path fill-rule="evenodd" clip-rule="evenodd" d="M98.0225 105.85L151.471 141.482C160.663 147.611 172.619 147.685 181.887 141.673L235.126 107.135V173.942C235.126 181.585 228.93 187.781 221.287 187.781H111.861C104.218 187.781 98.0225 181.585 98.0225 173.942V105.85Z" fill="#98E6FF" fill-opacity="0.19"/>
<path d="M98.0225 105.85L102.538 99.0771L89.882 90.6397V105.85H98.0225ZM151.471 141.482L155.986 134.709L155.986 134.709L151.471 141.482ZM181.887 141.673L177.456 134.844L177.456 134.844L181.887 141.673ZM235.126 107.135H243.266V92.1501L230.695 100.305L235.126 107.135ZM93.507 112.624L146.955 148.256L155.986 134.709L102.538 99.0771L93.507 112.624ZM146.955 148.256C158.851 156.186 174.323 156.283 186.317 148.502L177.456 134.844C170.914 139.088 162.475 139.035 155.986 134.709L146.955 148.256ZM186.317 148.502L239.556 113.964L230.695 100.305L177.456 134.844L186.317 148.502ZM226.985 107.135V173.942H243.266V107.135H226.985ZM226.985 173.942C226.985 177.089 224.434 179.641 221.287 179.641V195.921C233.426 195.921 243.266 186.081 243.266 173.942H226.985ZM221.287 179.641H111.861V195.921H221.287V179.641ZM111.861 179.641C108.714 179.641 106.163 177.089 106.163 173.942H89.882C89.882 186.081 99.7225 195.921 111.861 195.921V179.641ZM106.163 173.942V105.85H89.882V173.942H106.163Z" fill="#53B6FF" mask="url(#path-3-inside-1_220_1081)"/>
<circle cx="168.181" cy="66.6015" r="21.9245" fill="#49D3FF"/>
<defs>
<filter id="filter0_b_220_1081" x="69.8649" y="-3.24325" width="196.267" height="141.326" filterUnits="userSpaceOnUse" color-interpolation-filters="sRGB">
<feFlood flood-opacity="0" result="BackgroundImageFix"/>
<feGaussianBlur in="BackgroundImage" stdDeviation="1.6281"/>
<feComposite in2="SourceAlpha" operator="in" result="effect1_backgroundBlur_220_1081"/>
<feBlend mode="normal" in="SourceGraphic" in2="effect1_backgroundBlur_220_1081" result="shape"/>
</filter>
</defs>
</svg>
