<?xml version="1.0" encoding="UTF-8" standalone="no"?>
<svg
   width="32"
   height="32"
   viewBox="0 0 32 32"
   fill="none"
   version="1.1"
   id="svg4"
   sodipodi:docname="medium-white.svg"
   inkscape:version="1.1.2 (0a00cf5339, 2022-02-04)"
   xmlns:inkscape="http://www.inkscape.org/namespaces/inkscape"
   xmlns:sodipodi="http://sodipodi.sourceforge.net/DTD/sodipodi-0.dtd"
   xmlns="http://www.w3.org/2000/svg"
   xmlns:svg="http://www.w3.org/2000/svg">
  <defs
     id="defs8" />
  <sodipodi:namedview
     id="namedview6"
     pagecolor="#878787"
     bordercolor="#666666"
     borderopacity="1.0"
     inkscape:pageshadow="2"
     inkscape:pageopacity="0"
     inkscape:pagecheckerboard="0"
     showgrid="false"
     inkscape:zoom="25.8125"
     inkscape:cx="15.98063"
     inkscape:cy="16"
     inkscape:window-width="1920"
     inkscape:window-height="1006"
     inkscape:window-x="0"
     inkscape:window-y="0"
     inkscape:window-maximized="1"
     inkscape:current-layer="svg4" />
  <path
     fill-rule="evenodd"
     clip-rule="evenodd"
     d="M5 0H27C29.7614 0 32 2.23858 32 5V27C32 29.7614 29.7614 32 27 32H5C2.23859 32 0 29.7614 0 27V5C0 2.23858 2.23859 0 5 0ZM9.70001 11.7C9.79999 11.8 9.89999 12 9.89999 12.2V19.2C10 19.5 9.89999 19.7 9.70001 19.9L8 21.9V22.2H12.7V21.9L11 19.9C10.9 19.7 10.8 19.5 10.8 19.2V13.1L15 22.2H15.4L19 13.1V20.4C19 20.6 19 20.7 18.9 20.8L17.6 22.1V22.4H23.9V22.1L22.7 20.9C22.6 20.8 22.6 20.6 22.6 20.5V11.5C22.5 11.3 22.6 11.2 22.7 11.1L24 9.89999V9.6H19.6L16.4 17.5L12.8 9.6H8.20001V9.89999L9.70001 11.7Z"
     fill="white"
     id="path2"
     style="fill:#d3efff;fill-opacity:1" />
</svg>
