<svg width="107" height="102" viewBox="0 0 107 102" fill="none" xmlns="http://www.w3.org/2000/svg">
<path fill-rule="evenodd" clip-rule="evenodd" d="M6.32806 88.8601C4.76597 90.4222 4.76597 92.9548 6.32806 94.5169L12.5506 100.739C14.1127 102.302 16.6454 102.302 18.2075 100.739L53.2854 65.6615L88.3647 100.741C89.9268 102.303 92.4595 102.303 94.0216 100.741L100.244 94.5183C101.806 92.9562 101.806 90.4235 100.244 88.8614L65.1648 53.7821L105.194 13.7531C106.756 12.191 106.756 9.65836 105.194 8.09626L98.9713 1.87372C97.4092 0.311623 94.8765 0.311629 93.3144 1.87373L53.2854 41.9027L13.2578 1.87508C11.6957 0.312987 9.16299 0.312988 7.6009 1.87509L1.37836 8.09762C-0.18374 9.65972 -0.183733 12.1924 1.37836 13.7545L41.406 53.7821L6.32806 88.8601Z" fill="white"/>
</svg>
