<svg width="268" height="268" viewBox="0 0 268 268" fill="none" xmlns="http://www.w3.org/2000/svg">
<circle cx="106.334" cy="161.044" r="106.334" fill="#102F38" fill-opacity="0.62"/>
<g filter="url(#filter0_b_230_678)">
<path d="M161.034 5.8605L81.9032 58.6146C75.62 62.8034 75.62 72.0363 81.9032 76.2252L161.034 128.979C164.549 131.322 169.12 131.351 172.664 129.052L253.982 76.2979C260.413 72.126 260.413 62.7137 253.982 58.5418L172.664 5.78774C169.12 3.48881 164.549 3.51741 161.034 5.8605Z" fill="#1E3542" fill-opacity="0.63"/>
<path d="M161.034 5.8605L81.9032 58.6146C75.62 62.8034 75.62 72.0363 81.9032 76.2252L161.034 128.979C164.549 131.322 169.12 131.351 172.664 129.052L253.982 76.2979C260.413 72.126 260.413 62.7137 253.982 58.5418L172.664 5.78774C169.12 3.48881 164.549 3.51741 161.034 5.8605Z" stroke="#00475F" stroke-width="8.14048"/>
</g>
<mask id="path-3-inside-1_230_678" fill="white">
<path fill-rule="evenodd" clip-rule="evenodd" d="M98.0225 105.85L151.471 141.482C160.663 147.611 172.619 147.685 181.887 141.673L235.126 107.135V173.942C235.126 181.585 228.93 187.781 221.287 187.781H111.861C104.218 187.781 98.0225 181.585 98.0225 173.942V105.85Z"/>
</mask>
<path d="M98.0225 105.85L102.538 99.0768L89.882 90.6395V105.85H98.0225ZM151.471 141.482L155.987 134.709V134.709L151.471 141.482ZM181.887 141.673L177.457 134.844V134.844L181.887 141.673ZM235.126 107.135H243.266V92.1504L230.695 100.306L235.126 107.135ZM93.5069 112.623L146.956 148.256L155.987 134.709L102.538 99.0768L93.5069 112.623ZM146.956 148.256C158.851 156.186 174.324 156.283 186.318 148.502L177.457 134.844C170.915 139.088 162.475 139.035 155.987 134.709L146.956 148.256ZM186.318 148.502L239.556 113.964L230.695 100.306L177.457 134.844L186.318 148.502ZM226.985 107.135V173.942H243.266V107.135H226.985ZM226.985 173.942C226.985 177.089 224.434 179.641 221.287 179.641V195.922C233.426 195.922 243.266 186.081 243.266 173.942H226.985ZM221.287 179.641H111.861V195.922H221.287V179.641ZM111.861 179.641C108.714 179.641 106.163 177.089 106.163 173.942H89.882C89.882 186.081 99.7225 195.922 111.861 195.922V179.641ZM106.163 173.942V105.85H89.882V173.942H106.163Z" fill="#00475F" mask="url(#path-3-inside-1_230_678)"/>
<circle cx="168.181" cy="66.6015" r="21.9245" fill="#023B4D"/>
<defs>
<filter id="filter0_b_230_678" x="69.8639" y="-3.24325" width="196.267" height="141.326" filterUnits="userSpaceOnUse" color-interpolation-filters="sRGB">
<feFlood flood-opacity="0" result="BackgroundImageFix"/>
<feGaussianBlur in="BackgroundImage" stdDeviation="1.6281"/>
<feComposite in2="SourceAlpha" operator="in" result="effect1_backgroundBlur_230_678"/>
<feBlend mode="normal" in="SourceGraphic" in2="effect1_backgroundBlur_230_678" result="shape"/>
</filter>
</defs>
</svg>
