<svg width="46" height="49" viewBox="0 0 46 49" fill="none" xmlns="http://www.w3.org/2000/svg">
<path d="M22.8173 0.620117L25.3242 4.46085C26.8669 6.82448 29.8485 7.79325 32.4859 6.78783L36.7715 5.1541L36.542 9.7348C36.4008 12.5538 38.2435 15.0901 40.9682 15.8269L45.3956 17.0242L42.5175 20.5952C40.7463 22.7928 40.7463 25.9278 42.5175 28.1255L45.3956 31.6965L40.9682 32.8938C38.2435 33.6306 36.4008 36.1669 36.542 38.9859L36.7715 43.5666L32.4859 41.9329C29.8485 40.9274 26.8669 41.8962 25.3242 44.2598L22.8173 48.1006L20.3105 44.2598C18.7677 41.8962 15.7862 40.9274 13.1488 41.9329L8.86316 43.5666L9.0926 38.9859C9.23381 36.1669 7.3911 33.6306 4.66642 32.8938L0.239014 31.6965L3.11711 28.1255C4.88832 25.9278 4.88832 22.7928 3.11711 20.5952L0.239014 17.0242L4.66643 15.8269C7.3911 15.0901 9.23381 12.5538 9.0926 9.7348L8.86316 5.1541L13.1488 6.78783C15.7862 7.79325 18.7677 6.82448 20.3105 4.46085L22.8173 0.620117Z" fill="#FFE142"/>
<circle cx="22.8174" cy="24.3604" r="15.4714" transform="rotate(45 22.8174 24.3604)" fill="#EFB303"/>
</svg>
