<svg width="30" height="30" viewBox="0 0 30 30" fill="none" xmlns="http://www.w3.org/2000/svg">
<path d="M14.5195 4.98523H6.63607C4.07564 4.98523 2 7.06087 2 9.6213L2 23.29C2 25.8504 4.07564 27.9261 6.63608 27.9261L20.3039 27.9261C22.8644 27.9261 24.94 25.8504 24.94 23.29V15.4102" stroke="#884FC1" stroke-width="3" stroke-linecap="round"/>
<path d="M14.9647 12.8435C14.3789 13.4293 14.3789 14.379 14.9647 14.9648C15.5505 15.5506 16.5003 15.5506 17.086 14.9648L14.9647 12.8435ZM27.5684 2.36133L29.0681 2.38646C29.075 1.97995 28.9165 1.58808 28.6289 1.30061C28.3414 1.01313 27.9496 0.854681 27.543 0.861542L27.5684 2.36133ZM25.948 9.52767C25.9342 10.356 26.5944 11.0387 27.4227 11.0526C28.251 11.0665 28.9337 10.4063 28.9476 9.57794L25.948 9.52767ZM20.4027 0.982052C19.5744 0.996032 18.9142 1.67884 18.9282 2.50715C18.9422 3.33546 19.625 3.9956 20.4533 3.98163L20.4027 0.982052ZM17.086 14.9648L28.629 3.42199L26.5077 1.30066L14.9647 12.8435L17.086 14.9648ZM26.0686 2.33619L25.948 9.52767L28.9476 9.57794L29.0681 2.38646L26.0686 2.33619ZM27.543 0.861542L20.4027 0.982052L20.4533 3.98163L27.5937 3.86111L27.543 0.861542Z" fill="#884FC1"/>
</svg>
