<svg width="23" height="23" viewBox="0 0 23 23" fill="none" xmlns="http://www.w3.org/2000/svg">
<path d="M19.3522 0.33963H4.02975C2.10648 0.33963 0.547363 1.89875 0.547363 3.82202V19.1445C0.547363 21.0678 2.10648 22.6269 4.02975 22.6269H19.3522C21.2755 22.6269 22.8346 21.0678 22.8346 19.1445V3.82201C22.8346 1.89875 21.2755 0.33963 19.3522 0.33963Z" fill="#FC6D26"/>
<path fill-rule="evenodd" clip-rule="evenodd" d="M17.2297 12.0844L16.6452 10.2885C16.6421 10.2719 16.6374 10.2557 16.6311 10.2401L15.4584 6.63053C15.4272 6.5374 15.3673 6.45652 15.2874 6.39943C15.2075 6.34234 15.1115 6.31197 15.0133 6.31263C14.9154 6.31204 14.8198 6.34284 14.7406 6.40053C14.6615 6.45821 14.6029 6.53974 14.5735 6.63316L13.4557 10.0728H9.92796L8.8086 6.63316C8.77925 6.54006 8.72097 6.45877 8.6422 6.40111C8.56343 6.34346 8.46831 6.31246 8.37071 6.31263H8.36807C8.26977 6.31265 8.17395 6.34366 8.09427 6.40127C8.01461 6.45887 7.95511 6.54013 7.92427 6.63349L6.75065 10.2474C6.75065 10.2493 6.74971 10.2511 6.74873 10.2529L6.74703 10.2566L6.15201 12.0847C6.10828 12.2188 6.10818 12.3633 6.15173 12.4974C6.19526 12.6316 6.28017 12.7484 6.39429 12.8313L11.5352 16.5668C11.5804 16.5996 11.6349 16.6171 11.6908 16.6168C11.7466 16.6165 11.801 16.5984 11.8459 16.5652L16.9877 12.8313C17.1019 12.7484 17.1869 12.6315 17.2303 12.4972C17.2738 12.363 17.2736 12.2185 17.2297 12.0844ZM9.3747 10.0728L8.36578 6.97177L7.36047 10.0728H9.3747ZM16.0249 10.0728L15.0179 6.97177L14.0093 10.0728H16.0249ZM9.54531 10.6008L10.9783 15.0112L7.53833 10.6008H9.54531ZM12.4054 15.0122L13.7795 10.7839L13.8387 10.6008H15.8473L12.7351 14.5878L12.4054 15.0122ZM10.0993 10.5988H13.2851L11.691 15.501L10.0993 10.5988ZM6.70365 12.4059C6.6794 12.3883 6.66138 12.3634 6.65215 12.3349C6.64293 12.3063 6.64301 12.2756 6.65237 12.2471L7.09419 10.8894L10.3346 15.0437L6.70365 12.4059ZM13.0474 15.0428L16.6787 12.4059C16.703 12.3882 16.721 12.3629 16.7302 12.3343C16.7393 12.3057 16.7391 12.275 16.7297 12.2465L16.2878 10.8894L13.0596 15.027L13.0474 15.0428Z" fill="white"/>
</svg>
