<svg width="67" height="66" viewBox="0 0 67 66" fill="none" xmlns="http://www.w3.org/2000/svg">
<g opacity="0.95">
<path d="M30.428 2.91731C24.1093 12.567 23.3303 25.3406 29.4913 36.0119C35.6523 46.6831 47.1041 52.3953 58.6202 51.748C56.0006 55.7486 52.4288 59.2121 48.0048 61.7664C32.9094 70.4817 13.6071 65.3096 4.89183 50.2143C-3.82347 35.119 1.34858 15.8166 16.4439 7.10135C20.8681 4.54706 25.6536 3.18565 30.428 2.91731Z" fill="white"/>
<path d="M38.784 7.4547L41.495 14.781L48.8213 17.492L41.495 20.203L38.784 27.5293L36.073 20.203L28.7467 17.492L36.073 14.781L38.784 7.4547Z" fill="#F7F7F7"/>
<path d="M54.8387 19.1273L58.0118 27.7025L66.587 30.8756L58.0118 34.0486L54.8387 42.6238L51.6657 34.0486L43.0905 30.8756L51.6657 27.7025L54.8387 19.1273Z" fill="#C8C8C8"/>
<path d="M54.8382 0L56.8516 5.44124L62.2929 7.45468L56.8516 9.46813L54.8382 14.9094L52.8248 9.46813L47.3835 7.45468L52.8248 5.44124L54.8382 0Z" fill="white"/>
</g>
</svg>
