<?xml version="1.0" encoding="UTF-8" standalone="no"?>
<svg
   width="121.1839"
   height="121.1839"
   viewBox="0 0 121.1839 121.1839"
   fill="none"
   version="1.1"
   id="svg14"
   sodipodi:docname="sun.svg"
   inkscape:version="1.1.2 (0a00cf5339, 2022-02-04)"
   xmlns:inkscape="http://www.inkscape.org/namespaces/inkscape"
   xmlns:sodipodi="http://sodipodi.sourceforge.net/DTD/sodipodi-0.dtd"
   xmlns="http://www.w3.org/2000/svg"
   xmlns:svg="http://www.w3.org/2000/svg">
  <defs
     id="defs18" />
  <sodipodi:namedview
     id="namedview16"
     pagecolor="#ffffff"
     bordercolor="#666666"
     borderopacity="1.0"
     inkscape:pageshadow="2"
     inkscape:pageopacity="0.0"
     inkscape:pagecheckerboard="0"
     showgrid="false"
     inkscape:zoom="4.8023256"
     inkscape:cx="60.075061"
     inkscape:cy="60.179177"
     inkscape:window-width="1920"
     inkscape:window-height="1006"
     inkscape:window-x="0"
     inkscape:window-y="0"
     inkscape:window-maximized="1"
     inkscape:current-layer="svg14" />
  <g
     opacity="0.9"
     id="g12"
     transform="translate(-25.7181,-25.7181)">
    <path
       fill-rule="evenodd"
       clip-rule="evenodd"
       d="m 129.155,43.4651 -10.404,24.1268 c -1.602,-2.774 -3.59,-5.3864 -5.963,-7.7595 -2.373,-2.373 -4.986,-4.3609 -7.76,-5.9637 z m -6.673,52.5502 c 1.697,-6.3503 1.697,-13.06 0,-19.4104 l 24.42,9.7052 z m -9.694,16.7717 c 2.373,-2.373 4.36,-4.985 5.963,-7.759 l 10.404,24.127 -24.127,-10.404 c 2.774,-1.603 5.386,-3.591 7.76,-5.964 z m -36.1835,9.694 c 6.3506,1.698 13.0605,1.698 19.411,0 l -9.7054,24.421 z m -16.7714,-9.694 c 2.3732,2.373 4.9856,4.361 7.7597,5.964 l -24.1277,10.404 10.404,-24.128 c 1.6029,2.774 3.5908,5.387 5.964,7.76 z M 50.1389,76.6047 c -1.6975,6.3505 -1.6974,13.0604 3e-4,19.4109 L 25.7181,86.3101 Z m 9.6942,-16.7723 c -2.3732,2.3733 -4.3613,4.9858 -5.9642,7.7599 L 43.4651,43.4651 67.5921,53.8688 c -2.7739,1.6028 -5.3861,3.5907 -7.759,5.9636 z m 36.1821,-9.6941 c -6.3504,-1.6975 -13.06,-1.6974 -19.4103,10e-5 L 86.3101,25.7181 Z M 62.1876,110.188 c 13.4735,13.473 35.3183,13.473 48.7914,0 13.474,-13.4738 13.474,-35.3187 0,-48.7921 -13.4731,-13.4735 -35.3179,-13.4735 -48.7914,0 -13.4734,13.4734 -13.4734,35.3183 0,48.7921 z"
       fill="#ffeba3"
       id="path2" />
    <path
       d="m 43.4726,43.4644 10.3938,24.1222 c 3.2629,-5.6901 8.0328,-10.482 13.7307,-13.7314 z"
       fill="#ffb800"
       id="path4" />
    <path
       d="m 129.13,129.163 -10.394,-24.122 c -3.263,5.69 -8.033,10.482 -13.731,13.731 z"
       fill="#ffb800"
       id="path6" />
    <path
       d="M 43.4951,129.127 67.6174,118.734 C 61.9273,115.471 57.1354,110.701 53.886,105.003 Z"
       fill="#ffb800"
       id="path8" />
    <path
       d="m 129.149,43.4641 -24.122,10.3938 c 5.69,3.2629 10.482,8.0327 13.732,13.7306 z"
       fill="#ffb800"
       id="path10" />
  </g>
</svg>
