<svg width="27" height="27" viewBox="0 0 27 27" fill="none" xmlns="http://www.w3.org/2000/svg">
<path d="M12.7092 2.08228L6.63608 2.08228C4.07564 2.08228 2 4.15792 2 6.71835L2 20.387C2 22.9475 4.07564 25.0231 6.63608 25.0231L20.2222 25.0231C22.7626 25.0231 24.8298 22.9787 24.858 20.4384L24.9258 14.3168" stroke="#884FC1" stroke-width="3" stroke-linecap="round"/>
<path d="M8.92762 15.9311C8.34184 16.5169 8.34183 17.4666 8.92762 18.0524C9.51341 18.6382 10.4632 18.6382 11.0489 18.0524L8.92762 15.9311ZM25.0001 1.97998L26.4999 2.00512C26.5067 1.5986 26.3482 1.20673 26.0607 0.91926C25.7732 0.631787 25.3813 0.473336 24.9748 0.480197L25.0001 1.97998ZM23.3798 9.14633C23.3659 9.97464 24.0261 10.6574 24.8545 10.6713C25.6828 10.6851 26.3655 10.0249 26.3794 9.1966L23.3798 9.14633ZM17.8345 0.600707C17.0061 0.614687 16.346 1.2975 16.36 2.12581C16.374 2.95412 17.0568 3.61426 17.8851 3.60028L17.8345 0.600707ZM11.0489 18.0524L26.0608 3.04064L23.9394 0.919322L8.92762 15.9311L11.0489 18.0524ZM23.5003 1.95485L23.3798 9.14633L26.3794 9.1966L26.4999 2.00512L23.5003 1.95485ZM24.9748 0.480197L17.8345 0.600707L17.8851 3.60028L25.0254 3.47977L24.9748 0.480197Z" fill="#884FC1"/>
</svg>
