<?xml version="1.0" encoding="UTF-8" standalone="no"?>
<svg
   width="27"
   height="27"
   viewBox="0 0 27 27"
   fill="none"
   version="1.1"
   id="svg6"
   sodipodi:docname="external-link-hover.svg"
   inkscape:version="1.1.2 (0a00cf5339, 2022-02-04)"
   xmlns:inkscape="http://www.inkscape.org/namespaces/inkscape"
   xmlns:sodipodi="http://sodipodi.sourceforge.net/DTD/sodipodi-0.dtd"
   xmlns="http://www.w3.org/2000/svg"
   xmlns:svg="http://www.w3.org/2000/svg">
  <defs
     id="defs10" />
  <sodipodi:namedview
     id="namedview8"
     pagecolor="#ffffff"
     bordercolor="#666666"
     borderopacity="1.0"
     inkscape:pageshadow="2"
     inkscape:pageopacity="0.0"
     inkscape:pagecheckerboard="0"
     showgrid="false"
     inkscape:zoom="21.63223"
     inkscape:cx="9.6383962"
     inkscape:cy="12.75874"
     inkscape:window-width="1920"
     inkscape:window-height="1006"
     inkscape:window-x="0"
     inkscape:window-y="0"
     inkscape:window-maximized="1"
     inkscape:current-layer="svg6" />
  <path
     d="M12.7092 2.08228L6.63608 2.08228C4.07564 2.08228 2 4.15792 2 6.71835L2 20.387C2 22.9475 4.07564 25.0231 6.63608 25.0231L20.2222 25.0231C22.7626 25.0231 24.8298 22.9787 24.858 20.4384L24.9258 14.3168"
     stroke="#884FC1"
     stroke-width="3"
     stroke-linecap="round"
     id="path2" />
  <path
     d="m 12.92762,11.9311 c -0.58578,0.5858 -0.58579,1.5355 0,2.1213 0.58579,0.5858 1.53558,0.5858 2.12128,0 z m 16.07248,-13.95112 1.4998,0.02514 c 0.0068,-0.40652 -0.1517,-0.79839 -0.4392,-1.08586 -0.2875,-0.287473 -0.6794,-0.445924 -1.0859,-0.439063 z m -1.6203,7.16635 c -0.0139,0.82831 0.6463,1.51107 1.4747,1.52497 0.8283,0.0138 1.511,-0.6464 1.5249,-1.4747 z m -5.5453,-8.545623 c -0.8284,0.01398 -1.4885,0.696793 -1.4745,1.525103 0.014,0.82831 0.6968,1.48845 1.5251,1.47447 z M 15.0489,14.0524 30.0608,-0.95936 27.9394,-3.080678 12.92762,11.9311 Z m 12.4514,-16.09755 -0.1205,7.19148 2.9996,0.05027 0.1205,-7.19148 z m 1.4745,-1.474653 -7.1403,0.12051 0.0506,2.999573 7.1403,-0.12051 z"
     fill="#884fc1"
     id="path4" />
</svg>
