<svg width="23" height="23" viewBox="0 0 23 23" fill="none" xmlns="http://www.w3.org/2000/svg">
<path d="M19.3708 0.645752H4.0483C2.12503 0.645752 0.565918 2.20487 0.565918 4.12814V19.4506C0.565918 21.3739 2.12503 22.933 4.0483 22.933H19.3708C21.2941 22.933 22.8532 21.3739 22.8532 19.4506V4.12814C22.8532 2.20487 21.2941 0.645752 19.3708 0.645752Z" fill="#231E1B"/>
<path fill-rule="evenodd" clip-rule="evenodd" d="M11.6925 6.35129C8.62542 6.35129 6.1377 8.83901 6.1377 11.9061C6.1377 14.3597 7.73938 16.4385 9.9204 17.1882C10.193 17.2223 10.2953 17.0519 10.2953 16.9156C10.2953 16.7793 10.2953 16.4385 10.2953 15.9614C8.76173 16.3022 8.42095 15.2117 8.42095 15.2117C8.1824 14.5642 7.80754 14.3938 7.80754 14.3938C7.29636 14.053 7.84161 14.053 7.84161 14.053C8.38687 14.0871 8.69357 14.6323 8.69357 14.6323C9.20475 15.4843 9.98855 15.2457 10.2953 15.1094C10.3293 14.7346 10.4997 14.496 10.636 14.3597C9.40922 14.2234 8.11424 13.7463 8.11424 11.5994C8.11424 10.9859 8.31871 10.5089 8.69357 10.0999C8.6595 9.99767 8.45503 9.41834 8.76173 8.66862C8.76173 8.66862 9.23883 8.5323 10.2953 9.24795C10.7383 9.11164 11.2154 9.07756 11.6925 9.07756C12.1696 9.07756 12.6467 9.14572 13.0897 9.24795C14.1461 8.5323 14.6232 8.66862 14.6232 8.66862C14.9299 9.41834 14.7254 9.99767 14.6914 10.134C15.0322 10.5089 15.2707 11.02 15.2707 11.6334C15.2707 13.7804 13.9757 14.2234 12.7489 14.3597C12.9534 14.5301 13.1238 14.8709 13.1238 15.3821C13.1238 16.1318 13.1238 16.7111 13.1238 16.9156C13.1238 17.0519 13.226 17.2223 13.4986 17.1882C15.7137 16.4385 17.2813 14.3597 17.2813 11.9061C17.2472 8.83901 14.7595 6.35129 11.6925 6.35129Z" fill="white"/>
</svg>
