<svg width="131" height="131" viewBox="0 0 131 131" fill="none" xmlns="http://www.w3.org/2000/svg">
<g clip-path="url(#clip0_154_908)">
<path d="M18.1419 33.3167C21.5428 30.9397 26.6695 31.3956 29.7231 33.9173L26.2208 28.8268C23.4024 24.8072 24.4118 20.4584 28.435 17.6363C32.4583 14.8252 38.0083 15.7948 40.8303 19.8252L72.7735 65.3468L73.0268 65.2347L43.8585 22.3832C41.0148 18.3238 41.5466 13.179 45.606 10.3316C49.6654 7.49511 55.2661 8.47559 58.1098 12.5422L95.8093 65.7991C98.6567 69.8621 97.2601 75.4265 93.2007 78.2703C92.5097 78.7551 91.7644 79.088 91.0046 79.3521V112.381H54.8247V101.118C54.2965 100.651 51.3261 98.3574 50.9064 97.7568L15.9313 45.9001C13.0622 41.8154 14.0535 36.1822 18.1419 33.3167Z" fill="#50473F"/>
<path d="M10.3052 62.9445C10.3052 62.9445 6.20961 56.9748 12.1829 52.8829C18.149 48.7909 22.2409 54.757 22.2409 54.757L41.239 82.4636C41.8939 81.3709 42.6102 80.2928 43.4098 79.2291L17.0419 40.7807C17.0419 40.7807 12.9499 34.8146 18.9196 30.7226C24.8857 26.6307 28.9776 32.5968 28.9776 32.5968L53.779 68.7658C54.7016 68.0133 55.6459 67.2571 56.6191 66.5154L27.8669 24.5793C27.8669 24.5793 23.775 18.6132 29.7447 14.5213C35.7107 10.4293 39.8027 16.3954 39.8027 16.3954L68.5549 58.3243C69.6113 57.6767 70.6569 57.1159 71.7061 56.5226L44.8317 17.3325C44.8317 17.3325 40.7397 11.3664 46.7058 7.27443C52.6719 3.18248 56.7638 9.14855 56.7638 9.14855L85.1795 50.589L87.4553 53.9067L89.4994 56.8916C71.5976 69.1711 69.8935 92.2719 80.1216 107.189C82.1658 110.174 85.1506 108.13 85.1506 108.13C72.8747 90.2242 76.623 70.1045 94.5284 57.8286L89.2498 31.4101C89.2498 31.4101 87.278 24.449 94.2354 22.4736C101.196 20.5018 103.172 27.4628 103.172 27.4628L109.268 45.5673C111.685 52.7454 114.257 59.8981 117.662 66.6638C127.275 85.7668 121.533 109.508 103.407 121.943C83.6347 135.5 56.6046 130.46 43.0444 110.691C42.328 109.642 41.7274 108.618 41.1558 107.598L40.9966 107.706L10.3052 62.9445Z" fill="#5ACEE8"/>
<path d="M43.9708 116.151C29.4988 116.151 14.8749 101.527 14.8749 87.0548C14.8749 85.054 13.4096 83.4368 11.4089 83.4368C9.40812 83.4368 7.63892 85.054 7.63892 87.0548C7.63892 108.763 22.2628 123.387 43.9708 123.387C45.9716 123.387 47.5888 121.617 47.5888 119.617C47.5888 117.616 45.9716 116.151 43.9708 116.151Z" fill="#009D65" fill-opacity="0.51"/>
<path d="M25.8809 123.235C15.0269 123.235 7.79092 115.999 7.79092 105.145C7.79092 103.144 6.17367 101.527 4.17292 101.527C2.17217 101.527 0.554932 103.144 0.554932 105.145C0.554932 119.617 11.4089 130.471 25.8809 130.471C27.8816 130.471 29.4989 128.853 29.4989 126.853C29.4989 124.852 27.8816 123.235 25.8809 123.235ZM87.3868 7.45892C85.3896 7.45892 83.7688 9.07978 83.7688 11.0769C83.7688 13.074 85.3896 14.6949 87.3868 14.6949C101.859 14.6949 116.331 27.6799 116.331 43.6389C116.331 45.636 117.952 47.2568 119.949 47.2568C121.946 47.2568 123.567 45.636 123.567 43.6389C123.567 23.6892 109.095 7.45892 87.3868 7.45892Z" fill="#009D65" fill-opacity="0.51"/>
<path d="M105.477 0.374893C103.48 0.374893 101.859 1.8438 101.859 3.84093C101.859 5.83806 103.48 7.61088 105.477 7.61088C116.331 7.61088 123.415 15.6609 123.415 25.5489C123.415 27.546 125.184 29.1669 127.185 29.1669C129.185 29.1669 130.651 27.546 130.651 25.5489C130.651 11.6666 119.949 0.374893 105.477 0.374893Z" fill="#009D65" fill-opacity="0.51"/>
</g>
<defs>
<clipPath id="clip0_154_908">
<rect width="130.248" height="130.248" fill="white" transform="translate(0.554688 0.2229)"/>
</clipPath>
</defs>
</svg>
