<?xml version="1.0" encoding="UTF-8" standalone="no"?>
<svg
   width="32"
   height="32"
   viewBox="0 0 32 32"
   fill="none"
   version="1.1"
   id="svg4"
   sodipodi:docname="linkedin-white.svg"
   inkscape:version="1.1.2 (0a00cf5339, 2022-02-04)"
   xmlns:inkscape="http://www.inkscape.org/namespaces/inkscape"
   xmlns:sodipodi="http://sodipodi.sourceforge.net/DTD/sodipodi-0.dtd"
   xmlns="http://www.w3.org/2000/svg"
   xmlns:svg="http://www.w3.org/2000/svg">
  <defs
     id="defs8" />
  <sodipodi:namedview
     id="namedview6"
     pagecolor="#6b6b6b"
     bordercolor="#666666"
     borderopacity="1.0"
     inkscape:pageshadow="2"
     inkscape:pageopacity="0"
     inkscape:pagecheckerboard="0"
     showgrid="false"
     inkscape:snap-grids="true"
     inkscape:zoom="18.252194"
     inkscape:cx="15.368016"
     inkscape:cy="17.477351"
     inkscape:window-width="1920"
     inkscape:window-height="1006"
     inkscape:window-x="0"
     inkscape:window-y="0"
     inkscape:window-maximized="1"
     inkscape:current-layer="svg4" />
  <path
     fill-rule="evenodd"
     clip-rule="evenodd"
     d="M0 5C0 2.23858 2.23858 0 5 0H27C29.7614 0 32 2.23858 32 5V27C32 29.7614 29.7614 32 27 32H5C2.23858 32 0 29.7614 0 27V5ZM8.2 13.3V24H11.6V13.3H8.2ZM8 9.9C8 11 8.8 11.8 9.9 11.8C11 11.8 11.8 11 11.8 9.9C11.8 8.8 11 8 9.9 8C8.9 8 8 8.8 8 9.9ZM20.6 24H23.8V17.4C23.8 14.1 21.8 13 19.9 13C18.2 13 17 14.1 16.7 14.8V13.3H13.5V24H16.9V18.3C16.9 16.8 17.9 16 18.9 16C19.9 16 20.6 16.5 20.6 18.2V24Z"
     fill="white"
     id="path2"
     style="fill:#d3efff;fill-opacity:1" />
</svg>
