<svg width="23" height="23" viewBox="0 0 23 23" fill="none" xmlns="http://www.w3.org/2000/svg">
<path d="M19.1437 0.54718H3.82125C1.89798 0.54718 0.338867 2.1063 0.338867 4.02956V19.3521C0.338867 21.2753 1.89798 22.8344 3.82125 22.8344H19.1437C21.067 22.8344 22.6261 21.2753 22.6261 19.3521V4.02956C22.6261 2.1063 21.067 0.54718 19.1437 0.54718Z" fill="#2867B2"/>
<path d="M8.41845 17.2626H6.05043V9.81032H8.41845V17.2626ZM7.23444 8.7656C6.46832 8.7656 5.91113 8.20842 5.91113 7.44229C5.91113 6.67617 6.53796 6.11899 7.23444 6.11899C8.00056 6.11899 8.55775 6.67617 8.55775 7.44229C8.55775 8.20842 8.00056 8.7656 7.23444 8.7656ZM17.0548 17.2626H14.6867V13.2231C14.6867 12.039 14.1992 11.6908 13.5027 11.6908C12.8063 11.6908 12.1098 12.248 12.1098 13.2927V17.2626H9.74176V9.81032H11.9705V10.855C12.1794 10.3675 13.0152 9.60137 14.1992 9.60137C15.5225 9.60137 16.9155 10.3675 16.9155 12.6659V17.2626H17.0548Z" fill="white"/>
</svg>
