<svg width="24" height="24" viewBox="0 0 24 24" fill="none" xmlns="http://www.w3.org/2000/svg">
<path d="M19.5969 0.842896H4.27438C2.35111 0.842896 0.791992 2.40201 0.791992 4.32528V19.6478C0.791992 21.571 2.35111 23.1302 4.27438 23.1302H19.5969C21.5201 23.1302 23.0793 21.571 23.0793 19.6478V4.32528C23.0793 2.40201 21.5201 0.842896 19.5969 0.842896Z" fill="white"/>
<path d="M7.68756 9.33989C7.68756 9.2006 7.61792 9.0613 7.54827 8.99165L6.50355 7.738V7.52905H9.70735L12.2147 13.0312L14.4434 7.52905H17.5079V7.738L16.6025 8.57377C16.5328 8.64342 16.4632 8.71306 16.5328 8.85236V15.1207C16.5328 15.1903 16.5328 15.3296 16.6025 15.3992L17.4382 16.235V16.444H13.0504V16.235L13.9559 15.3296C14.0255 15.2599 14.0255 15.1903 14.0255 15.051V9.96672L11.5182 16.3047H11.2396L8.31439 9.96672V14.2152C8.31439 14.4242 8.38404 14.5635 8.45369 14.7028L9.6377 16.0957V16.3047H6.36426V16.0957L7.54827 14.7028C7.68756 14.5635 7.75721 14.4242 7.68756 14.2152V9.33989Z" fill="black"/>
</svg>
