<svg width="46" height="44" viewBox="0 0 46 44" fill="none" xmlns="http://www.w3.org/2000/svg">
<path fill-rule="evenodd" clip-rule="evenodd" d="M37.8357 27.5098C35.3657 29.6074 32.167 30.8728 28.6727 30.8728C20.8503 30.8728 14.509 24.5315 14.509 16.7091C14.509 12.4339 16.4032 8.60105 19.3981 6.00409C19.2657 6.00137 19.133 6 19 6C8.50659 6 0 14.5066 0 25C0 35.4934 8.50659 44 19 44C28.6426 44 36.6075 36.817 37.8357 27.5098Z" fill="#F2F8FF"/>
<path d="M26.5 7L28.5257 12.4743L34 14.5L28.5257 16.5257L26.5 22L24.4743 16.5257L19 14.5L24.4743 12.4743L26.5 7Z" fill="#E9EFF6"/>
<path d="M40 13L41.6205 17.3795L46 19L41.6205 20.6205L40 25L38.3795 20.6205L34 19L38.3795 17.3795L40 13Z" fill="#BEC4CB"/>
<path d="M37 0L38.6205 4.37946L43 6L38.6205 7.62054L37 12L35.3795 7.62054L31 6L35.3795 4.37946L37 0Z" fill="#F2F8FF"/>
</svg>
